<?xml version="1.0" encoding="UTF-8" standalone="no"?>
<svg
   width="512"
   height="408"
   version="1.1"
   id="svg33"
   sodipodi:docname="Bootstrap_Logo.svg"
   inkscape:version="1.2 (dc2aeda, 2022-05-15)"
   xmlns:inkscape="http://www.inkscape.org/namespaces/inkscape"
   xmlns:sodipodi="http://sodipodi.sourceforge.net/DTD/sodipodi-0.dtd"
   xmlns="http://www.w3.org/2000/svg"
   xmlns:svg="http://www.w3.org/2000/svg">
  <sodipodi:namedview
     id="namedview35"
     pagecolor="#ffffff"
     bordercolor="#000000"
     borderopacity="0.25"
     inkscape:showpageshadow="2"
     inkscape:pageopacity="0.0"
     inkscape:pagecheckerboard="0"
     inkscape:deskcolor="#d1d1d1"
     showgrid="false"
     inkscape:zoom="0.57843137"
     inkscape:cx="-36.305085"
     inkscape:cy="206.59322"
     inkscape:window-width="1309"
     inkscape:window-height="787"
     inkscape:window-x="0"
     inkscape:window-y="25"
     inkscape:window-maximized="0"
     inkscape:current-layer="svg33" />
  <defs
     id="defs27">
    <linearGradient
       id="bs-logo-a"
       x1="76.079"
       x2="523.48"
       y1="10.798"
       y2="365.945"
       gradientUnits="userSpaceOnUse">
      <stop
         stop-color="#9013fe"
         id="stop2" />
      <stop
         offset="1"
         stop-color="#6610f2"
         id="stop4" />
    </linearGradient>
    <linearGradient
       id="bs-logo-b"
       x1="193.508"
       x2="293.514"
       y1="109.74"
       y2="278.872"
       gradientUnits="userSpaceOnUse">
      <stop
         stop-color="#fff"
         id="stop7" />
      <stop
         offset="1"
         stop-color="#f1e5fc"
         id="stop9" />
    </linearGradient>
    <filter
       id="bs-logo-c"
       width="197"
       height="249"
       x="161.901"
       y="83.457"
       color-interpolation-filters="sRGB"
       filterUnits="userSpaceOnUse">
      <feFlood
         flood-opacity="0"
         result="BackgroundImageFix"
         id="feFlood12" />
      <feColorMatrix
         in="SourceAlpha"
         values="0 0 0 0 0 0 0 0 0 0 0 0 0 0 0 0 0 0 127 0"
         id="feColorMatrix14" />
      <feOffset
         dy="4"
         id="feOffset16" />
      <feGaussianBlur
         stdDeviation="8"
         id="feGaussianBlur18" />
      <feColorMatrix
         values="0 0 0 0 0 0 0 0 0 0 0 0 0 0 0 0 0 0 0.15 0"
         id="feColorMatrix20" />
      <feBlend
         in2="BackgroundImageFix"
         result="effect1_dropShadow"
         id="feBlend22" />
      <feBlend
         in="SourceGraphic"
         in2="effect1_dropShadow"
         result="shape"
         id="feBlend24" />
    </filter>
  </defs>
  <path
     fill="url(#bs-logo-a)"
     d="M56.481 53.32C55.515 25.58 77.128 0 106.342 0h299.353c29.214 0 50.827 25.58 49.861 53.32-.928 26.647.277 61.165 8.964 89.31 8.715 28.232 23.411 46.077 47.48 48.37v26c-24.069 2.293-38.765 20.138-47.48 48.37-8.687 28.145-9.892 62.663-8.964 89.311.966 27.739-20.647 53.319-49.861 53.319H106.342c-29.214 0-50.827-25.58-49.86-53.319.927-26.648-.278-61.166-8.966-89.311C38.802 237.138 24.07 219.293 0 217v-26c24.069-2.293 38.802-20.138 47.516-48.37 8.688-28.145 9.893-62.663 8.965-89.31z"
     id="path29" />
  <g
     aria-label="B"
     transform="scale(0.96030355,1.0413374)"
     id="text356"
     style="font-weight:bold;font-size:292.186px;font-family:Arial;-inkscape-font-specification:'Arial, Bold';fill:#ffffff;fill-rule:evenodd;stroke-width:24.3488">
    <path
       d="m 178.98364,91.325594 h 83.604 q 24.8244,0 36.95126,2.140035 12.26953,1.997365 21.82835,8.560141 9.70149,6.56277 16.12159,17.54828 6.4201,10.84284 6.4201,24.39639 0,14.6949 -7.98946,26.96443 -7.84679,12.26953 -21.40034,18.40429 19.11764,5.56409 29.3898,18.97497 10.27217,13.41088 10.27217,31.52984 0,14.26689 -6.70544,27.82044 -6.56277,13.41088 -18.11896,21.54301 -11.41352,7.98947 -28.24845,9.84416 -10.5575,1.14135 -50.93282,1.42669 h -71.1918 z m 42.23001,34.811226 v 48.36477 h 27.67777 q 24.68173,0 30.67383,-0.71334 10.84284,-1.28402 16.9776,-7.41879 6.27744,-6.27743 6.27744,-16.40693 0,-9.70149 -5.42142,-15.69358 -5.27875,-6.13477 -15.83626,-7.41879 -6.27743,-0.71334 -36.09524,-0.71334 z m 0,83.17599 v 55.92623 h 39.09129 q 22.82703,0 28.9618,-1.28402 9.41615,-1.71203 15.26557,-8.2748 5.9921,-6.70544 5.9921,-17.83362 0,-9.41615 -4.56541,-15.97892 -4.5654,-6.56277 -13.26821,-9.55882 -8.56014,-2.99605 -37.37926,-2.99605 z"
       id="path408" />
  </g>
</svg>
